 <svg version="1.0" xmlns="http://www.w3.org/2000/svg" width="700.000000pt" height="700.000000pt" viewBox="0 0 700.000000 700.000000" preserveAspectRatio="xMidYMid meet">
<metadata>
Created by potrace 1.12, written by Peter Selinger 2001-2015
</metadata>
<g transform="translate(0.000000,700.000000) scale(0.100000,-0.100000)" fill="#000000" stroke="none">
<path d="M3173 4410 c-75 -69 -105 -172 -82 -277 16 -70 79 -138 145 -155 24
-7 44 -15 44 -19 0 -3 30 -9 67 -13 37 -4 74 -12 82 -19 8 -7 17 -11 20 -11
29 6 79 -41 87 -83 3 -18 10 -33 15 -33 5 0 10 -270 11 -617 l3 -618 24 -3
c49 -7 111 80 111 157 0 22 5 43 10 46 6 3 10 21 10 40 0 19 -4 37 -10 40 -6
4 -10 220 -10 615 0 588 -5 710 -31 710 -5 0 -9 6 -9 13 0 37 -107 92 -198
102 -37 4 -71 10 -77 15 -5 4 -31 10 -56 14 -49 7 -70 24 -97 77 -21 41 -32
45 -59 19z"></path>
<path d="M5161 4128 c-35 -36 -56 -67 -64 -95 -6 -24 -14 -43 -18 -43 -13 0
-21 -103 -12 -145 11 -51 94 -122 153 -131 40 -7 78 -34 47 -34 -8 0 -17 -7
-21 -15 -3 -8 -11 -15 -19 -15 -17 0 -167 -147 -167 -163 0 -7 -9 -20 -20 -30
-11 -9 -20 -23 -20 -31 0 -7 -7 -19 -15 -26 -8 -7 -17 -27 -21 -46 -3 -19 -9
-34 -13 -34 -4 0 -13 -17 -20 -37 -7 -21 -16 -47 -21 -58 -18 -42 -30 -89 -30
-116 0 -15 -4 -30 -9 -33 -4 -3 -11 -35 -14 -72 -4 -36 -11 -71 -16 -78 -5 -6
-14 -50 -21 -99 -7 -48 -16 -89 -20 -92 -4 -3 -13 -41 -21 -85 -7 -44 -16 -80
-21 -80 -4 0 -8 -6 -8 -14 0 -8 -16 -37 -35 -66 -38 -56 -41 -70 -23 -88 14
-14 74 -16 82 -3 3 4 23 11 44 15 77 12 170 138 193 261 7 33 15 65 20 70 8
11 14 61 25 215 4 52 10 100 14 105 4 6 10 46 14 90 4 44 11 84 15 90 5 5 13
39 20 75 14 76 25 105 71 189 26 47 108 129 149 148 24 12 38 14 50 6 9 -6 37
-14 61 -18 25 -4 50 -11 55 -15 6 -4 42 -13 80 -20 39 -7 75 -16 80 -20 6 -4
39 -13 75 -20 36 -7 70 -16 75 -21 6 -4 33 -10 60 -14 28 -4 55 -11 60 -16 6
-4 41 -13 79 -20 38 -6 79 -17 92 -24 23 -11 22 -12 -42 -76 -35 -35 -64 -67
-64 -72 0 -4 -15 -28 -33 -51 -45 -59 -117 -206 -117 -239 0 -9 -4 -17 -9 -17
-5 0 -14 -30 -21 -67 -7 -38 -16 -73 -21 -78 -4 -6 -11 -34 -15 -63 -3 -28
-10 -52 -15 -52 -5 0 -9 -16 -9 -36 0 -53 -20 -175 -35 -209 -7 -16 -16 -56
-20 -87 -3 -32 -10 -60 -15 -63 -4 -2 -11 -25 -15 -50 -4 -29 -17 -58 -36 -79
-53 -62 -28 -92 65 -78 86 14 187 108 202 188 3 19 9 34 13 34 9 0 31 129 31
183 0 24 4 47 9 52 9 10 12 38 27 225 4 47 10 90 14 95 4 6 10 48 14 95 4 46
11 87 15 90 5 3 12 20 16 39 6 29 36 93 80 169 7 13 29 40 49 61 42 43 94 141
103 194 3 20 10 40 14 43 25 15 -9 144 -38 144 -7 0 -13 4 -13 9 0 17 -84 50
-157 62 -40 7 -73 15 -73 19 0 4 -22 10 -50 14 -27 4 -50 10 -50 15 0 5 -35
14 -77 21 -43 6 -82 15 -88 20 -5 4 -41 13 -80 20 -38 7 -74 16 -80 20 -5 5
-39 14 -75 20 -36 7 -69 16 -75 20 -5 4 -29 11 -53 15 -53 9 -122 69 -122 106
0 14 -5 30 -12 37 -24 24 -55 12 -107 -40z"></path>
<path d="M1750 4082 c0 -5 -44 -14 -97 -22 -54 -7 -102 -16 -108 -20 -5 -5
-37 -11 -70 -15 -33 -4 -64 -11 -70 -15 -5 -4 -46 -13 -90 -20 -44 -6 -89 -16
-100 -20 -11 -5 -56 -14 -100 -21 -44 -6 -85 -15 -91 -20 -6 -5 -45 -12 -87
-15 l-76 -7 -47 47 c-26 25 -51 46 -55 46 -16 0 -50 -45 -56 -73 -3 -15 -10
-30 -14 -33 -12 -7 -11 -161 1 -169 5 -3 10 -20 10 -36 0 -22 12 -43 43 -75
39 -42 47 -46 105 -51 62 -6 238 12 257 27 6 4 49 13 98 19 48 7 89 17 92 21
3 4 34 11 70 15 36 3 67 10 70 15 3 4 50 13 105 20 55 7 100 16 100 20 0 4 43
13 95 21 52 7 95 16 95 21 0 4 14 8 30 8 17 0 30 -4 30 -10 0 -5 -4 -10 -9
-10 -5 0 -14 -21 -21 -47 -6 -26 -16 -53 -21 -59 -5 -6 -15 -59 -21 -118 -13
-117 2 -408 22 -414 5 -2 10 -15 10 -28 0 -34 19 -112 36 -151 8 -17 14 -42
14 -56 0 -14 4 -28 8 -31 5 -3 14 -38 21 -78 7 -40 20 -89 29 -108 12 -25 18
-69 20 -152 4 -137 13 -153 65 -123 68 38 127 123 127 183 0 7 6 21 12 32 10
16 10 24 0 40 -6 11 -12 33 -12 48 0 37 -21 144 -30 157 -4 6 -11 26 -15 45
-4 19 -13 44 -20 55 -7 11 -16 36 -19 56 -3 19 -15 53 -26 74 -11 22 -20 47
-20 57 0 10 -4 26 -9 36 -27 50 -42 90 -51 144 -6 33 -15 68 -20 77 -29 53
-27 303 2 338 16 20 18 180 2 214 -6 13 -17 42 -24 64 -17 54 -47 85 -82 85
-15 0 -28 5 -28 10 0 6 -18 10 -40 10 -22 0 -40 -4 -40 -8z"></path>
<path d="M1095 2973 c-28 -7 -93 -72 -113 -113 -24 -49 -23 -274 1 -310 9 -14
19 -49 23 -77 3 -29 10 -53 14 -53 16 0 31 -157 20 -200 -6 -22 -8 -45 -5 -50
10 -16 81 -12 95 5 7 8 18 15 25 15 19 0 66 48 87 88 19 38 25 140 10 158 -5
5 -15 42 -21 81 -7 40 -16 75 -21 78 -4 2 -10 32 -14 64 -4 33 -11 63 -16 66
-19 12 -11 136 10 180 28 57 19 75 -34 74 -22 -1 -50 -3 -61 -6z"></path>
</g>
</svg>